<mxfile host="app.diagrams.net" agent="Mozilla/5.0 (Windows NT 10.0; Win64; x64) AppleWebKit/537.36 (KHTML, like Gecko) Chrome/131.0.0.0 Safari/537.36" version="25.0.1">
  <diagram name="หน้า-1" id="blt9GbbW0bEJ-UQBBbrq">
    <mxGraphModel dx="1050" dy="530" grid="1" gridSize="10" guides="1" tooltips="1" connect="1" arrows="1" fold="1" page="1" pageScale="1" pageWidth="827" pageHeight="1169" math="0" shadow="0">
      <root>
        <mxCell id="0" />
        <mxCell id="1" parent="0" />
        <mxCell id="5-O9b083rtklvpCng4Vs-10" value="" style="edgeStyle=orthogonalEdgeStyle;rounded=0;orthogonalLoop=1;jettySize=auto;html=1;" edge="1" parent="1" source="5-O9b083rtklvpCng4Vs-1" target="5-O9b083rtklvpCng4Vs-9">
          <mxGeometry relative="1" as="geometry" />
        </mxCell>
        <mxCell id="5-O9b083rtklvpCng4Vs-1" value="Start" style="ellipse;whiteSpace=wrap;html=1;" vertex="1" parent="1">
          <mxGeometry x="354" y="10" width="120" height="80" as="geometry" />
        </mxCell>
        <mxCell id="5-O9b083rtklvpCng4Vs-5" value="F" style="edgeStyle=orthogonalEdgeStyle;rounded=0;orthogonalLoop=1;jettySize=auto;html=1;" edge="1" parent="1" source="5-O9b083rtklvpCng4Vs-2" target="5-O9b083rtklvpCng4Vs-4">
          <mxGeometry relative="1" as="geometry" />
        </mxCell>
        <mxCell id="5-O9b083rtklvpCng4Vs-2" value="Input = y or Y" style="rhombus;whiteSpace=wrap;html=1;" vertex="1" parent="1">
          <mxGeometry x="374" y="330" width="80" height="80" as="geometry" />
        </mxCell>
        <mxCell id="5-O9b083rtklvpCng4Vs-7" value="" style="edgeStyle=orthogonalEdgeStyle;rounded=0;orthogonalLoop=1;jettySize=auto;html=1;" edge="1" parent="1" source="5-O9b083rtklvpCng4Vs-4" target="5-O9b083rtklvpCng4Vs-6">
          <mxGeometry relative="1" as="geometry" />
        </mxCell>
        <mxCell id="5-O9b083rtklvpCng4Vs-4" value="Output enter 1 char" style="shape=parallelogram;perimeter=parallelogramPerimeter;whiteSpace=wrap;html=1;fixedSize=1;" vertex="1" parent="1">
          <mxGeometry x="351" y="500" width="126" height="60" as="geometry" />
        </mxCell>
        <mxCell id="5-O9b083rtklvpCng4Vs-6" value="Input char" style="shape=parallelogram;perimeter=parallelogramPerimeter;whiteSpace=wrap;html=1;fixedSize=1;" vertex="1" parent="1">
          <mxGeometry x="354" y="640" width="120" height="60" as="geometry" />
        </mxCell>
        <mxCell id="5-O9b083rtklvpCng4Vs-11" value="" style="edgeStyle=orthogonalEdgeStyle;rounded=0;orthogonalLoop=1;jettySize=auto;html=1;" edge="1" parent="1" source="5-O9b083rtklvpCng4Vs-9" target="5-O9b083rtklvpCng4Vs-2">
          <mxGeometry relative="1" as="geometry" />
        </mxCell>
        <mxCell id="5-O9b083rtklvpCng4Vs-16" value="T" style="edgeStyle=orthogonalEdgeStyle;rounded=0;orthogonalLoop=1;jettySize=auto;html=1;entryX=0;entryY=0.5;entryDx=0;entryDy=0;exitX=0;exitY=0.5;exitDx=0;exitDy=0;" edge="1" parent="1" source="5-O9b083rtklvpCng4Vs-2" target="5-O9b083rtklvpCng4Vs-14">
          <mxGeometry relative="1" as="geometry">
            <mxPoint x="314" y="210" as="targetPoint" />
            <Array as="points">
              <mxPoint x="340" y="370" />
              <mxPoint x="340" y="810" />
            </Array>
          </mxGeometry>
        </mxCell>
        <mxCell id="5-O9b083rtklvpCng4Vs-9" value="" style="shape=waypoint;sketch=0;size=6;pointerEvents=1;points=[];fillColor=default;resizable=0;rotatable=0;perimeter=centerPerimeter;snapToPoint=1;" vertex="1" parent="1">
          <mxGeometry x="404" y="200" width="20" height="20" as="geometry" />
        </mxCell>
        <mxCell id="5-O9b083rtklvpCng4Vs-12" style="edgeStyle=orthogonalEdgeStyle;rounded=0;orthogonalLoop=1;jettySize=auto;html=1;exitX=1;exitY=0.5;exitDx=0;exitDy=0;entryX=0.9;entryY=0.46;entryDx=0;entryDy=0;entryPerimeter=0;" edge="1" parent="1" source="5-O9b083rtklvpCng4Vs-6" target="5-O9b083rtklvpCng4Vs-9">
          <mxGeometry relative="1" as="geometry">
            <Array as="points">
              <mxPoint x="490" y="670" />
              <mxPoint x="490" y="210" />
            </Array>
          </mxGeometry>
        </mxCell>
        <mxCell id="5-O9b083rtklvpCng4Vs-18" value="" style="edgeStyle=orthogonalEdgeStyle;rounded=0;orthogonalLoop=1;jettySize=auto;html=1;" edge="1" parent="1" source="5-O9b083rtklvpCng4Vs-14" target="5-O9b083rtklvpCng4Vs-17">
          <mxGeometry relative="1" as="geometry" />
        </mxCell>
        <mxCell id="5-O9b083rtklvpCng4Vs-14" value="Output all chars" style="shape=parallelogram;perimeter=parallelogramPerimeter;whiteSpace=wrap;html=1;fixedSize=1;" vertex="1" parent="1">
          <mxGeometry x="354" y="780" width="120" height="60" as="geometry" />
        </mxCell>
        <mxCell id="5-O9b083rtklvpCng4Vs-17" value="End" style="ellipse;whiteSpace=wrap;html=1;" vertex="1" parent="1">
          <mxGeometry x="354" y="920" width="120" height="80" as="geometry" />
        </mxCell>
      </root>
    </mxGraphModel>
  </diagram>
</mxfile>
